<svg xmlns="http://www.w3.org/2000/svg" width="200" height="200" viewBox="0 -960 960 960" fill="none" role="img" aria-label="Valkeon terminal V (white)">
  <path d="M160-160q-33 0-56.5-23.5T80-240v-480q0-33 23.5-56.5T160-800h640q33 0 56.5 23.5T880-720v480q0 33-23.5 56.5T800-160H160Zm0-80h640v-400H160v400Z" fill="#ffffff"/>
  <path d="M276-508 L347-360 L418-508" fill="none" stroke="#ffffff" stroke-width="64" stroke-linecap="round" stroke-linejoin="round"/>
  <path d="M520-280q-17 0-28.5-11.5T480-320q0-17 11.5-28.5T520-360h160q17 0 28.5 11.5T720-320q0 17-11.5 28.5T680-280H520Z" fill="#ffffff"/>
</svg>
